<?xml version="1.0" standalone="no"?><!DOCTYPE svg PUBLIC "-//W3C//DTD SVG 1.1//EN" "http://www.w3.org/Graphics/SVG/1.1/DTD/svg11.dtd"><svg t="1583769448316" class="icon" viewBox="0 0 1024 1024" version="1.1" xmlns="http://www.w3.org/2000/svg" p-id="2050" xmlns:xlink="http://www.w3.org/1999/xlink" width="200" height="200"><defs><style type="text/css"></style></defs><path d="M36.2496 994.7136c-6.4512 0-12.6976-2.6624-17.1008-7.5776-5.4272-5.9392-7.3728-14.2336-5.2224-22.016l67.8912-243.5072c1.1264-3.8912 3.1744-7.3728 5.9392-10.24L766.8736 32.3584c17.92-17.92 47.0016-17.92 64.8192 0l162.5088 162.5088c17.92 17.92 17.92 47.0016 0 64.8192l-89.088 89.088c-4.4032 4.4032-10.24 6.8608-16.4864 6.8608-6.144 0-12.0832-2.4576-16.4864-6.8608L739.2256 215.7568c-9.1136-9.1136-9.1136-23.8592 0-32.8704 9.1136-9.1136 23.8592-9.1136 32.8704 0l116.5312 116.5312 72.192-72.192L799.232 65.7408 124.928 740.1472 68.7104 941.7728l218.5216-40.8576 404.48-404.48c6.656-7.168 79.5648-83.456 169.0624-90.0096 12.8-0.9216 23.9616 8.704 24.8832 21.504 0.9216 12.8-8.704 23.9616-21.504 24.8832-73.6256 5.4272-137.9328 74.752-138.5472 75.4688-0.2048 0.2048-0.512 0.512-0.7168 0.7168L314.9824 938.8032c-3.2768 3.2768-7.5776 5.5296-12.1856 6.4512L40.5504 994.304C39.1168 994.6112 37.6832 994.7136 36.2496 994.7136z" p-id="2051"></path></svg>