<?xml version="1.0" standalone="no"?><!DOCTYPE svg PUBLIC "-//W3C//DTD SVG 1.1//EN" "http://www.w3.org/Graphics/SVG/1.1/DTD/svg11.dtd"><svg t="1583765842081" class="icon" viewBox="0 0 1024 1024" version="1.1" xmlns="http://www.w3.org/2000/svg" p-id="1083" xmlns:xlink="http://www.w3.org/1999/xlink" width="200" height="200"><defs><style type="text/css"></style></defs><path d="M935.5296 227.8752H88.4704C57.28533333 227.8752 32 202.59093333 32 171.4048c0-31.18613333 25.28533333-56.4704 56.4704-56.4704h847.0592c31.18506667 0 56.4704 25.28533333 56.4704 56.4704 0 31.18613333-25.28533333 56.4704-56.4704 56.4704zM653.1776 568.47786667H88.4704C57.28533333 568.47786667 32 543.19253333 32 512.00746667c0-31.18613333 25.28533333-56.4704 56.4704-56.4704h564.7072c31.18506667 0 56.46933333 25.28533333 56.46933333 56.4704 0 31.18506667-25.28426667 56.4704-56.46933333 56.4704zM822.5888 909.0656H88.4704c-31.18506667 0-56.4704-25.28426667-56.4704-56.46933333 0-31.18613333 25.28533333-56.4704 56.4704-56.4704h734.1184c31.18506667 0 56.46933333 25.28426667 56.46933333 56.4704 0 31.18506667-25.28426667 56.46933333-56.46933333 56.46933333z" p-id="1084"></path></svg>