<?xml version="1.0" standalone="no"?><!DOCTYPE svg PUBLIC "-//W3C//DTD SVG 1.1//EN" "http://www.w3.org/Graphics/SVG/1.1/DTD/svg11.dtd"><svg t="1583765857879" class="icon" viewBox="0 0 1067 1024" version="1.1" xmlns="http://www.w3.org/2000/svg" p-id="1357" xmlns:xlink="http://www.w3.org/1999/xlink" width="208.3984375" height="200"><defs><style type="text/css"></style></defs><path d="M697.604667 407.823054C686.959555 412.900281 682.436983 425.636016 687.492877 436.259794 698.436649 459.213983 703.9832 483.85347 703.9832 509.559601 703.9832 603.658974 627.419462 680.222712 533.320089 680.222712 439.220716 680.201379 362.656978 603.637641 362.656978 509.538268 362.656978 463.949884 380.405942 421.09211 412.639937 388.858115 444.852599 356.645453 487.710373 338.89649 533.277423 338.89649L533.320089 338.89649C558.748893 338.89649 583.239049 344.336376 606.043907 355.088152 616.731685 360.16538 629.446087 355.536143 634.437983 344.912364 639.451211 334.24592 634.907306 321.531518 624.262195 316.518289 595.697456 303.057236 565.106094 296.230712 533.320089 296.230712L533.277423 296.230712C476.31861 296.230712 422.751726 318.416916 382.475232 358.69341 342.177405 398.991238 319.9912 452.558122 319.9912 509.538268 319.9912 627.146484 415.69054 722.867157 533.320089 722.88849 650.928306 722.88849 746.648978 627.167817 746.648978 509.559601 746.648978 477.474936 739.715789 446.627578 726.041407 417.934843 720.96418 407.289731 708.271111 402.809825 697.604667 407.823054M1014.784192 603.904302C961.131976 625.215858 916.162247 663.913718 887.277515 713.896677 858.435449 763.879636 847.406346 822.161088 855.768838 879.33323 808.089831 920.889698 752.026999 953.315689 692.444241 973.77393 647.133185 937.89201 591.113018 918.265753 533.322222 918.265753 475.552759 918.265753 419.532593 937.89201 374.200204 973.77393 314.617445 953.315689 258.575946 920.889698 210.875607 879.33323 219.238099 822.182421 208.187663 763.900969 179.345597 713.896677 150.482198 663.913718 105.533801 625.237191 51.860253 603.904302 45.737714 572.630287 42.665778 540.950947 42.665778 509.548934 42.665778 478.125589 45.737714 446.446249 51.860253 415.172234 105.533801 393.839345 150.482198 355.162817 179.345597 305.179859 208.187663 255.175567 219.238099 196.894115 210.875607 139.743305 258.575946 98.186838 314.617445 65.760847 374.200204 45.302606 419.532593 81.184525 475.552759 100.810783 533.322222 100.810783 591.113018 100.810783 647.133185 81.184525 692.444241 45.302606 752.026999 65.760847 808.089831 98.186838 855.768838 139.743305 847.406346 196.915447 858.435449 255.1969 887.277515 305.179859 916.162247 355.162817 961.131976 393.860678 1014.784192 415.172234 1020.885398 446.403583 1023.978667 478.104256 1023.978667 509.548934 1023.978667 541.014945 1020.885398 572.672953 1014.784192 603.904302M1054.122039 394.713993C1052.543405 387.439478 1047.231516 381.508935 1040.191663 379.098319 991.21135 362.288002 950.017541 328.45404 924.247412 283.84697 898.498615 239.239899 889.794796 186.654328 899.714589 135.796721 901.143893 128.500873 898.690611 120.970363 893.186725 115.957134 836.291911 63.926218 767.514677 24.161713 694.342868 1.015529 687.217683-1.224425 679.452511 0.375542 673.884627 5.260774 634.802775 39.372063 584.883815 58.145005 533.322222 58.145005 481.76063 58.145005 431.84167 39.372063 392.759818 5.260774 387.170601 0.396875 379.426762-1.203092 372.301577 1.015529 299.108435 24.183046 230.352534 63.926218 173.45772 115.957134 167.975167 120.970363 165.500552 128.500873 166.929856 135.796721 176.870982 186.632995 168.14583 239.218566 142.375701 283.84697 116.626904 328.45404 75.475761 362.288002 26.452782 379.098319 19.391596 381.530268 14.122372 387.439478 12.543739 394.713993 4.202579 432.64387 0 471.277732 0 509.548934 0 547.820137 4.202579 586.453999 12.543739 624.362542 14.122372 631.65839 19.391596 637.546268 26.452782 639.978217 75.475761 656.788533 116.626904 690.622495 142.375701 735.229566 168.14583 779.857969 176.870982 832.443541 166.929856 883.301148 165.500552 890.575663 167.975167 898.106173 173.45772 903.119402 230.352534 955.150318 299.108435 994.89349 372.301577 1018.061007 374.3922 1018.722326 376.589488 1019.063653 378.744109 1019.063653 383.821337 1019.063653 388.813233 1017.250357 392.759818 1013.815762 431.84167 979.704473 481.781963 960.93153 533.322222 960.93153 584.883815 960.93153 634.802775 979.704473 673.884627 1013.815762 679.473844 1018.700994 687.260349 1020.343626 694.342868 1018.061007 767.514677 994.914822 836.291911 955.17165 893.186725 903.119402 898.690611 898.106173 901.143893 890.575663 899.714589 883.301148 889.794796 832.422208 898.498615 779.836637 924.247412 735.229566 950.017541 690.622495 991.21135 656.788533 1040.191663 639.978217 1047.231516 637.567601 1052.543405 631.65839 1054.122039 624.362542 1062.420533 586.517997 1066.644445 547.884136 1066.644445 509.548934 1066.644445 471.213733 1062.420533 432.579871 1054.122039 394.713993" p-id="1358"></path></svg>