<?xml version="1.0" standalone="no"?><!DOCTYPE svg PUBLIC "-//W3C//DTD SVG 1.1//EN" "http://www.w3.org/Graphics/SVG/1.1/DTD/svg11.dtd"><svg t="1583766869826" class="icon" viewBox="0 0 1029 1024" version="1.1" xmlns="http://www.w3.org/2000/svg" p-id="1636" xmlns:xlink="http://www.w3.org/1999/xlink" width="200.9765625" height="200"><defs><style type="text/css"></style></defs><path d="M782.707733 603.308867H240.339155c-39.20492 0-71.097005-31.892085-71.097004-71.097004V190.946241c0-39.20492 31.892085-71.097005 71.097004-71.097005h542.368578c39.20492 0 71.097005 31.892085 71.097004 71.097005v341.265622c0 39.20492-31.892085 71.097005-71.097004 71.097004zM240.339155 180.789526c-5.68776 0-10.156715 4.468955-10.156715 10.156715v341.265622c0 5.68776 4.468955 10.156715 10.156715 10.156715h542.368578c5.68776 0 10.156715-4.468955 10.156715-10.156715V190.946241c0-5.68776-4.468955-10.156715-10.156715-10.156715H240.339155zM261.465122 643.935727c-50.783575 0-92.222972 41.439397-92.222971 92.222972s41.439397 92.222972 92.222971 92.222971 92.222972-41.439397 92.222972-92.222971-41.439397-92.222972-92.222972-92.222972z m-86.535211 74.550288c0.609403-2.84388 1.218806-5.68776 2.234477-8.531641-0.812537 2.84388-1.625074 5.68776-2.234477 8.531641z m27.219996-47.533426c3.047014-2.84388 6.500298-5.484626 9.953581-7.922238-3.453283 2.437612-6.906566 5.078357-9.953581 7.922238z m59.315215 97.504463c-17.875818 0-32.298354-14.422535-32.298353-32.298353s14.422535-32.298354 32.298353-32.298354 32.298354 14.422535 32.298354 32.298354-14.62567 32.298354-32.298354 32.298353z m49.158501-105.223567c3.453283 2.437612 6.906566 5.078357 9.95358 7.922238-3.047014-3.047014-6.500298-5.68776-9.95358-7.922238z m37.173576 55.25253c-0.609403-2.84388-1.218806-5.68776-2.234477-8.531641 0.812537 2.84388 1.625074 5.68776 2.234477 8.531641zM761.581766 643.935727c-50.783575 0-92.222972 41.439397-92.222972 92.222972s41.439397 92.222972 92.222972 92.222971 92.222972-41.439397 92.222971-92.222971c0.203134-50.783575-41.236263-92.222972-92.222971-92.222972z m-59.315216 27.016862c3.047014-2.84388 6.500298-5.484626 9.953581-7.922238-3.453283 2.437612-6.703432 5.078357-9.953581 7.922238z m29.25134 85.51954c1.218806 2.031343 2.84388 3.656417 4.468954 5.281491-1.625074-1.42194-3.047014-3.250149-4.468954-5.281491z m30.063876 11.984923c-17.875818 0-32.298354-14.422535-32.298354-32.298353s14.422535-32.298354 32.298354-32.298354 32.298354 14.422535 32.298353 32.298354-14.422535 32.298354-32.298353 32.298353z m49.361634-105.223567c3.453283 2.437612 6.906566 5.078357 9.953581 7.922238-3.047014-3.047014-6.500298-5.68776-9.953581-7.922238z m37.173577 55.25253c-0.609403-2.84388-1.218806-5.68776-2.234477-8.531641 0.812537 2.84388 1.625074 5.68776 2.234477 8.531641z" p-id="1637"></path><path d="M1011.843222 972.200754l-80.441183-77.800437c27.016862-29.048205 43.47074-67.237453 43.47074-109.083118v-621.590954C974.872779 73.331482 898.494283 0 804.443103 0h-585.026781C125.568276 0 48.986646 73.534616 48.986646 163.726245v621.590954c0 41.236263 15.844475 78.816108 42.251934 107.661178l-82.066257 79.222377C3.484563 977.68538 0.234414 985.201349 0.03128 993.326721c-0.203134 7.922238 2.84388 15.641341 8.328506 21.329101 5.68776 5.890895 13.406864 9.141043 21.532236 9.141044 7.922238 0 15.235072-3.047014 20.922832-8.531641l88.566555-85.51954c23.969847 12.188058 51.189843 19.297758 80.034913 19.297759h585.026781c28.235668 0 54.643126-6.703432 78.206705-18.282087l87.550883 84.707002c5.68776 5.484626 13.000595 8.531641 20.922832 8.531641 8.125372 0 15.844475-3.250149 21.532236-9.141043 5.484626-5.68776 8.531641-13.406864 8.328506-21.329102-0.203134-8.328506-3.453283-15.844475-9.141043-21.329101z m-207.400119-83.081928h-585.026781c-60.94029 0-110.301924-46.517754-110.301924-103.801627v-621.590954c0-57.283872 49.564769-103.801627 110.301924-103.801627h585.026781c60.94029 0 110.301924 46.517754 110.301924 103.801627v621.590954c0 57.080738-49.564769 103.801627-110.301924 103.801627z m186.477286 130.615354c1.625074 0 3.453283-0.203134 5.078357-0.406269-1.625074 0.203134-3.453283 0.406269-5.078357 0.406269z m25.188653-19.500893c-1.015671 4.26582-3.250149 8.328506-6.500297 11.578655-2.437612 2.437612-5.078357 4.26582-8.125372 5.68776 3.047014-1.218806 5.68776-3.250149 8.125372-5.68776 3.250149-3.453283 5.484626-7.312835 6.500297-11.578655z" p-id="1638"></path></svg>