<?xml version="1.0" standalone="no"?><!DOCTYPE svg PUBLIC "-//W3C//DTD SVG 1.1//EN" "http://www.w3.org/Graphics/SVG/1.1/DTD/svg11.dtd"><svg t="1583766863404" class="icon" viewBox="0 0 1024 1024" version="1.1" xmlns="http://www.w3.org/2000/svg" p-id="1357" xmlns:xlink="http://www.w3.org/1999/xlink" width="200" height="200"><defs><style type="text/css"></style></defs><path d="M860 455.2c-4.8 0-8.8-1.6-12-4.8l-56.8-61.6c-2.4-3.2-4-7.2-4-11.2v-8c0-8.8 7.2-16 16-16s16 7.2 16 16v1.6l40.8 44 107.2-116-172.8-186.4-88-24.8-4.8-2.4-68-49.6H389.6l-68 49.6-4.8 2.4-87.2 24.8L57.6 299.2l107.2 116 40.8-44v-1.6c0-8.8 7.2-16 16-16s16 7.2 16 16v8c0 4-1.6 8-4 11.2L176 449.6c-3.2 3.2-7.2 4.8-12 4.8s-8.8-1.6-12-4.8L24 310.4c-5.6-6.4-5.6-15.2 0-21.6L209.6 88c2.4-2.4 4.8-4 8-4.8l88.8-25.6L376 7.2c2.4-1.6 6.4-3.2 9.6-3.2H640c3.2 0 6.4 0.8 9.6 3.2l69.6 50.4 88.8 25.6c0.8 0 2.4 0.8 3.2 0.8 1.6 0.8 3.2 1.6 4.8 3.2l184 201.6c5.6 6.4 5.6 15.2 0 21.6l-128.8 139.2c-2.4 3.2-7.2 5.6-11.2 5.6z" p-id="1358"></path><path d="M803.2 1020H220.8c-8.8 0-16-7.2-16-16V311.2c0-8.8 7.2-16 16-16s16 7.2 16 16v676.8h549.6V311.2c0-8.8 7.2-16 16-16s16 7.2 16 16v692.8c0.8 8.8-6.4 16-15.2 16zM440 255.2h-1.6c-2.4 0-4-1.6-5.6-3.2L306.4 76.8c-2.4-3.2-1.6-8.8 1.6-11.2l72-52c1.6-1.6 4-1.6 5.6-1.6 2.4 0 4 1.6 5.6 3.2l127.2 174.4c2.4 3.2 1.6 8.8-1.6 11.2l-72 52c-1.6 1.6-3.2 2.4-4.8 2.4zM324 74.4l117.6 161.6 59.2-43.2L383.2 31.2l-59.2 43.2z" p-id="1359"></path><path d="M584 255.2c-1.6 0-3.2-0.8-4.8-1.6l-72-52c-3.2-2.4-4-8-1.6-11.2L632.8 15.2c1.6-1.6 3.2-3.2 5.6-3.2 2.4 0 4 0 5.6 1.6l72 52c3.2 2.4 4 8 1.6 11.2L590.4 252c-1.6 1.6-3.2 3.2-5.6 3.2H584z m-60.8-62.4l59.2 43.2L700 74.4l-59.2-43.2-117.6 161.6z" p-id="1360"></path><path d="M512 1012c-4.8 0-8-3.2-8-8V194.4c0-4.8 3.2-8 8-8s8 3.2 8 8v809.6c0 4.8-3.2 8-8 8zM451.2 382.4c-15.2 0-28-12.8-28-28s12.8-28 28-28 28 12.8 28 28c-0.8 16-12.8 28-28 28z m0-40c-6.4 0-12 5.6-12 12s5.6 12 12 12 12-5.6 12-12c-0.8-6.4-5.6-12-12-12zM451.2 545.6c-15.2 0-28-12.8-28-28s12.8-28 28-28 28 12.8 28 28c-0.8 15.2-12.8 28-28 28z m0-40c-6.4 0-12 5.6-12 12s5.6 12 12 12 12-5.6 12-12c-0.8-7.2-5.6-12-12-12zM451.2 708c-15.2 0-28-12.8-28-28s12.8-28 28-28 28 12.8 28 28c-0.8 15.2-12.8 28-28 28z m0-40c-6.4 0-12 5.6-12 12s5.6 12 12 12 12-5.6 12-12c-0.8-6.4-5.6-12-12-12zM451.2 870.4c-15.2 0-28-12.8-28-28s12.8-28 28-28 28 12.8 28 28c-0.8 16-12.8 28-28 28z m0-39.2c-6.4 0-12 5.6-12 12s5.6 12 12 12 12-5.6 12-12c-0.8-7.2-5.6-12-12-12z" p-id="1361"></path></svg>