<?xml version="1.0" standalone="no"?><!DOCTYPE svg PUBLIC "-//W3C//DTD SVG 1.1//EN" "http://www.w3.org/Graphics/SVG/1.1/DTD/svg11.dtd"><svg t="1583820433411" class="icon" viewBox="0 0 1024 1024" version="1.1" xmlns="http://www.w3.org/2000/svg" p-id="16477" xmlns:xlink="http://www.w3.org/1999/xlink" width="200" height="200"><defs><style type="text/css"></style></defs><path d="M523.6 344.9H509l0.6-14.5c0.1-1.4 1.4-35.2 7.8-74.3 8.9-54.4 23.2-91.3 42.2-109.6 22.8-21.9 52.2-33.9 82.8-33.9 29.3 0 56.2 11.2 75.9 31.5 19.1 19.8 29.3 46.3 28.8 74.7-0.6 30.8-14.2 61.2-37.3 83.4-19 18.2-56.2 30.9-110.6 37.7-39.6 5-74.2 5-75.6 5z m118.8-204.3c-23.3 0-45.8 9.3-63.4 26.1-26.5 25.4-37.5 106.5-40.6 149.9 43.6-1.5 125.5-9.3 152-34.6 17.8-17 28.2-40.3 28.7-63.7 0.4-20.9-7-40.3-20.9-54.7-14.4-14.8-34.2-23-55.8-23z" p-id="16478"></path><path d="M511.3 344.9c-1.5 0-36.1-0.1-75.6-5-54.4-6.8-91.6-19.5-110.6-37.7-23.1-22.2-36.7-52.5-37.3-83.4-0.6-28.4 9.7-54.9 28.8-74.7 19.6-20.3 46.6-31.5 75.9-31.5 30.6 0 60 12 82.8 33.9 19.1 18.3 33.3 55.1 42.2 109.6 6.4 39.1 7.8 72.8 7.8 74.3l0.6 14.5h-14.6zM392.4 140.6c-21.6 0-41.4 8.2-55.7 23-13.9 14.4-21.3 33.8-20.9 54.7 0.5 23.5 10.9 46.7 28.7 63.7 26.4 25.3 108.4 33.2 152 34.6-3.1-43.3-14.1-124.5-40.6-149.9-17.6-16.8-40.2-26.1-63.5-26.1zM757.1 899.6h-493c-35.6 0-64.5-28.9-64.5-64.5V493.6h622v341.5c0 35.6-29 64.5-64.5 64.5z m-529.5-378v313.5c0 20.1 16.4 36.5 36.5 36.5h493c20.1 0 36.5-16.4 36.5-36.5V521.6h-566z" p-id="16479"></path><path d="M840.5 517.6H180.7c-16 0-29.1-13.1-29.1-29.1v-136c0-16 13.1-29.1 29.1-29.1h659.8c16 0 29.1 13.1 29.1 29.1v136c0 16.1-13.1 29.1-29.1 29.1zM180.7 351.4c-0.6 0-1.1 0.5-1.1 1.1v136c0 0.6 0.5 1.1 1.1 1.1h659.8c0.6 0 1.1-0.5 1.1-1.1v-136c0-0.6-0.5-1.1-1.1-1.1H180.7z" p-id="16480"></path><path d="M609.6 519.6h-198V322.8h198v196.8z m-170-28h142V350.8h-142v140.8z" p-id="16481"></path><path d="M609.6 897.6h-198v-408h198v408z m-170-28h142v-352h-142v352z" p-id="16482"></path></svg>