<?xml version="1.0" standalone="no"?><!DOCTYPE svg PUBLIC "-//W3C//DTD SVG 1.1//EN" "http://www.w3.org/Graphics/SVG/1.1/DTD/svg11.dtd"><svg t="1583820426054" class="icon" viewBox="0 0 1024 1024" version="1.1" xmlns="http://www.w3.org/2000/svg" p-id="16202" xmlns:xlink="http://www.w3.org/1999/xlink" width="200" height="200"><defs><style type="text/css"></style></defs><path d="M957.1 230.6c-4.1-6.6-12.5-8.9-19.4-5.5l-234.8 117 117-234.8c3.4-6.9 1.1-15.3-5.5-19.4s-15.2-2.5-19.9 3.6L542.6 422l-271 135c-29.4-35.6-79.7-43.9-118.6-21.8-0.6 0.2-1.3 0.5-1.9 0.8l-13.3 6.6-66.3 33.2c-7.4 3.7-10.4 12.7-6.7 20.1 2.6 5.3 7.9 8.3 13.4 8.3 2.3 0 4.5-0.5 6.7-1.6l13.3-6.6 11.1-5.5c-8.4 28.8-2.9 61.1 17.6 85.9 15.9 19.3 38.4 31.3 63.4 33.7 3.1 0.3 6.1 0.4 9.2 0.4 21.7 0 42.5-7.4 59.4-21.4 27.2-22.4 38.5-57 32.6-89.4l54.7-16.2c48.7-14.4 98.5-25.6 148.8-33.4-7.8 50.2-19 100.2-33.4 148.8l-16.2 54.7c-32.4-5.9-67 5.4-89.4 32.6-32.9 39.9-27.2 99.1 12.7 132 17.4 14.4 38.5 21.4 59.5 21.4 27.1 0 53.9-11.6 72.4-34.1 32.9-39.9 27.2-99-12.7-131.9l135-271 330.4-251.9c6.3-4.9 7.9-13.5 3.8-20.1zM262.8 622.8c-1.6 17-9.8 32.3-22.9 43.1-13.1 10.8-29.7 15.9-46.7 14.3-17-1.6-32.3-9.8-43.1-22.9-22.4-27.1-18.5-67.4 8.7-89.8 11.9-9.8 26.2-14.5 40.5-14.5 18.4 0 36.7 7.9 49.3 23.2 2.8 3.4 5.2 7 7.2 10.9 0 0.1 0.1 0.3 0.1 0.4 0.6 1.8 1.4 3.4 2.4 4.9 3.9 9.4 5.5 19.8 4.5 30.4z m459.7-387.4l-64.2 128.9-54.9 27.4 119.1-156.3z m-245 650.9c-12.6 15.3-30.9 23.2-49.3 23.2-14.3 0-28.6-4.8-40.5-14.5-27.1-22.4-31-62.6-8.7-89.8 10.8-13.1 26.1-21.3 43.1-22.9 10.6-1 21.1 0.6 30.6 4.6 1.5 0.9 3.1 1.7 4.8 2.3 0.1 0 0.3 0.1 0.4 0.1 3.8 2 7.5 4.4 10.9 7.2 13.1 10.8 21.3 26.1 22.9 43.1 1.7 16.9-3.3 33.5-14.2 46.7z m48.4-340.6c4.1-0.5 8.1-1 12.2-1.5l31.4-3.6c0.4 0 0.7-0.1 1.1-0.2l-76.2 153c13.6-48.4 24.2-98 31.5-147.7z m36-34.4l-27.3 3.1c-61.7 7.1-123.3 19.3-183.1 36.2l207.4-103.3h0.1l250.6-124.9-247.7 188.9z" p-id="16203"></path><path d="M572.9 471.1m-15 0a15 15 0 1 0 30 0 15 15 0 1 0-30 0Z" p-id="16204"></path></svg>