<?xml version="1.0" standalone="no"?><!DOCTYPE svg PUBLIC "-//W3C//DTD SVG 1.1//EN" "http://www.w3.org/Graphics/SVG/1.1/DTD/svg11.dtd"><svg t="1583820439646" class="icon" viewBox="0 0 1024 1024" version="1.1" xmlns="http://www.w3.org/2000/svg" p-id="16755" xmlns:xlink="http://www.w3.org/1999/xlink" width="200" height="200"><defs><style type="text/css"></style></defs><path d="M734.5 925.8h-445c-42.2 0-78.1-32.1-84.1-75l-81.9-374.2c-3-25.4 4.9-50.8 21.6-69.7 16-18.1 38.9-28.4 62.7-28.4H816c23.8 0 46.7 10.4 62.7 28.4 16.8 18.9 24.7 44.3 21.7 69.7l-0.6 3.3-81.3 370.9c-5.9 42.9-41.8 75-84 75zM192.1 467.2l81.7 373.7c1.1 9 7.8 15.9 15.6 15.9h445c7.8 0 14.6-6.8 15.6-15.9l0.6-3.3 81.2-370.3c0.3-5.3-1.4-10.5-4.8-14.3-2.1-2.4-5.7-5.2-11-5.2H207.9c-5.3 0-8.9 2.8-11 5.2-3.4 3.7-5.1 8.8-4.8 14.2z m674 5.3h0.2-0.2zM693.4 348.7c-19.1 0-34.6-15.5-34.6-34.6 0-80.9-65.8-146.8-146.8-146.8s-146.8 65.9-146.8 146.8c0 19.1-15.5 34.6-34.6 34.6S296 333.2 296 314.1c0-119.1 96.9-216 216-216s216 96.9 216 216c0 19.1-15.5 34.6-34.6 34.6z" p-id="16756"></path><path d="M643.9 711.5H380.1c-19.1 0-34.6-15.5-34.6-34.6s15.5-34.6 34.6-34.6h263.8c19.1 0 34.6 15.5 34.6 34.6s-15.5 34.6-34.6 34.6z" p-id="16757"></path></svg>