<?xml version="1.0" standalone="no"?><!DOCTYPE svg PUBLIC "-//W3C//DTD SVG 1.1//EN" "http://www.w3.org/Graphics/SVG/1.1/DTD/svg11.dtd"><svg t="1583820448934" class="icon" viewBox="0 0 1024 1024" version="1.1" xmlns="http://www.w3.org/2000/svg" p-id="16893" xmlns:xlink="http://www.w3.org/1999/xlink" width="200" height="200"><defs><style type="text/css"></style></defs><path d="M580.16 331.52c-49.44 0-89.76-40.32-89.76-89.76 0-49.44 40.32-89.76 89.76-89.76s89.76 40.32 89.76 89.76c0 49.44-40.32 89.76-89.76 89.76z m0-134.4c-24.48 0-44.64 20.16-44.64 44.64s20.16 44.64 44.64 44.64c24.48 0 44.64-20.16 44.64-44.64s-20.16-44.64-44.64-44.64zM302.72 824c-95.04 0-172.8-77.28-172.8-172.8s77.28-172.8 172.8-172.8c12.48 0 22.56 10.08 22.56 22.56s-10.08 22.56-22.56 22.56c-70.56 0-127.68 57.12-127.68 127.68s57.12 127.68 127.68 127.68c34.08 0 66.24-13.44 90.24-37.44 8.64-8.64 23.04-8.64 31.68 0 8.64 8.64 8.64 23.04 0 31.68C392 806.24 348.8 824 302.72 824zM721.76 830.72c-46.56 0-90.72-18.24-123.84-51.36-8.64-8.64-8.64-23.04 0-31.68 8.64-8.64 23.04-8.64 31.68 0 24.48 24.48 57.12 37.92 91.68 37.92 71.52 0 130.08-58.08 130.08-130.08 0-39.84-20.16-80.64-52.32-106.08-22.08-17.28-59.52-35.52-114.24-23.04-12 2.88-24-4.8-26.88-16.8-2.88-12 4.8-24 16.8-26.88 56.16-12.96 109.92-1.92 152.16 31.68 42.72 34.08 69.12 87.84 69.12 141.12 0.48 96.96-77.76 175.2-174.24 175.2z" p-id="16894"></path><path d="M461.12 744.32c-5.76 0-11.04-1.92-15.36-6.24-9.12-8.64-9.6-23.04-0.96-31.68l47.52-49.92c6.72-7.2 10.56-16.8 10.08-26.4-0.48-10.08-4.8-19.2-12-25.92L356 488c-13.44-12-20.64-28.8-21.12-46.08 0-17.28 7.2-34.08 19.68-46.08l56.64-52.8c41.28-39.36 78.24-25.92 101.76-7.68l1.44 0.96 166.56 147.36c9.12 8.16 10.08 22.56 1.92 31.68-8.16 9.12-22.56 10.08-31.68 1.92L485.12 370.88c-13.44-10.08-24.48-12-43.2 5.28L385.28 428.48c-3.36 3.36-5.28 7.68-5.28 12.96s1.92 9.6 5.76 12.96l134.88 115.68c16.8 15.36 26.4 35.52 26.88 57.6 0.96 22.08-7.2 43.2-22.56 59.04l-47.52 49.92c-4.32 5.28-10.08 7.68-16.32 7.68z" p-id="16895"></path></svg>