<?xml version="1.0" standalone="no"?><!DOCTYPE svg PUBLIC "-//W3C//DTD SVG 1.1//EN" "http://www.w3.org/Graphics/SVG/1.1/DTD/svg11.dtd"><svg t="1583772536152" class="icon" viewBox="0 0 1024 1024" version="1.1" xmlns="http://www.w3.org/2000/svg" p-id="4531" xmlns:xlink="http://www.w3.org/1999/xlink" width="200" height="200"><defs><style type="text/css"></style></defs><path d="M486.989 617.262a26.127 26.127 0 0 1-18.473-44.6l158.27-158.275a26.127 26.127 0 0 1 36.95 36.946l-158.27 158.28a26.06 26.06 0 0 1-18.477 7.65z" p-id="4532"></path><path d="M645.258 617.262a26.05 26.05 0 0 1-18.473-7.65l-158.27-158.279a26.122 26.122 0 0 1 0-36.946 26.112 26.112 0 0 1 36.947 0l158.27 158.275a26.138 26.138 0 0 1-18.474 44.6z" p-id="4533"></path><path d="M804.93 792.806H356.307c-25.856 0-50.181-11.386-66.744-31.237L115.804 552.852c-9.58-11.863-14.715-26.265-14.71-40.857 0.006-13.978 4.245-27.11 12.263-37.975 0.307-0.415 0.62-0.82 0.952-1.208L289.224 262.82a86.574 86.574 0 0 1 67.082-31.632H804.93c47.211 0 85.621 38.406 85.621 85.617v390.38c0 47.211-38.41 85.621-85.621 85.621zM155.09 505.492c-0.824 1.234-1.74 3.2-1.74 6.518 0 2.652 1.044 5.463 2.866 7.721l173.486 208.39a35.02 35.02 0 0 0 26.604 12.436H804.93a33.408 33.408 0 0 0 33.372-33.372v-390.38a33.408 33.408 0 0 0-33.372-33.367H356.306a35.062 35.062 0 0 0-26.824 12.687L155.09 505.492z" p-id="4534"></path></svg>