<?xml version="1.0" standalone="no"?><!DOCTYPE svg PUBLIC "-//W3C//DTD SVG 1.1//EN" "http://www.w3.org/Graphics/SVG/1.1/DTD/svg11.dtd"><svg t="1583820414694" class="icon" viewBox="0 0 1024 1024" version="1.1" xmlns="http://www.w3.org/2000/svg" p-id="15790" xmlns:xlink="http://www.w3.org/1999/xlink" width="200" height="200"><defs><style type="text/css"></style></defs><path d="M584.5 532.6l95 95-95 95-95-95 95-95z m135.8 95.1L584.5 491.8 448.6 627.7l135.8 135.8 135.9-135.8z m-107-534c23.9 0 43.3 19.4 43.3 43.3s-19.4 43.3-43.3 43.3S570 160.9 570 137s19.5-43.3 43.3-43.3z m0 115.5c39.8 0 72.2-32.4 72.2-72.2 0-39.8-32.4-72.2-72.2-72.2-39.8 0-72.2 32.4-72.2 72.2 0.1 39.8 32.4 72.2 72.2 72.2z m-404 43.3c-23.9 0-43.3-19.4-43.3-43.3s19.4-43.3 43.3-43.3 43.3 19.4 43.3 43.3-19.5 43.3-43.3 43.3z m0-115.5c-39.8 0-72.2 32.4-72.2 72.2 0 39.8 32.4 72.2 72.2 72.2s72.2-32.4 72.2-72.2c-0.1-39.8-32.4-72.2-72.2-72.2z m624.2 230.9c-12.3 15.6-18.1 34.4-18.1 57.7v389.6c0 34 16 63.5 43.3 80.6v34.9H310.3v-34.9c27.3-17.1 43.3-46.6 43.3-80.6V425.6c0-22.1-6.5-41.8-18.3-57.7h306.9V339H511.9c10-7.5 18.1-17.3 23.2-28.9h323.6V339h-72.2v28.9h47zM671 339.1h28.9V368H671v-28.9z m57.8 0h28.9V368h-28.9v-28.9zM339.1 873h490.6v28.9H339.1V873z m-28.8-533.9v-28.9H403c5.1 11.6 13.2 21.4 23.2 28.9H310.3zM469 238c23.9 0 43.3 19.4 43.3 43.3s-19.4 43.3-43.3 43.3-43.3-19.4-43.3-43.3c0-23.8 19.5-43.3 43.3-43.3z m259.8-43.3c23.9 0 43.3 19.4 43.3 43.3s-19.4 43.3-43.3 43.3-43.3-19.4-43.3-43.3c0-23.8 19.4-43.3 43.3-43.3zM880.2 366l7.3-4.2v-80.5H786.1c9.2-12.1 14.8-27 14.8-43.3 0-39.8-32.4-72.2-72.2-72.2s-72.2 32.4-72.2 72.2c0 16.3 5.6 31.2 14.8 43.3H541.2c0-39.8-32.4-72.2-72.2-72.2s-72.2 32.4-72.2 72.2H281.4v81.1l8 4c22.4 11.2 35.3 32.8 35.3 59.3v389.6c0 26.4-12.9 48-35.3 59.2l-8 4v81.1h606.1v-81.1l-8-4c-22.4-11.2-35.3-32.8-35.3-59.3V425.6c0-28 10.1-44.8 36-59.6z" p-id="15791"></path></svg>