<?xml version="1.0" standalone="no"?><!DOCTYPE svg PUBLIC "-//W3C//DTD SVG 1.1//EN" "http://www.w3.org/Graphics/SVG/1.1/DTD/svg11.dtd"><svg t="1583766867336" class="icon" viewBox="0 0 1024 1024" version="1.1" xmlns="http://www.w3.org/2000/svg" p-id="1497" xmlns:xlink="http://www.w3.org/1999/xlink" width="200" height="200"><defs><style type="text/css"></style></defs><path d="M339.2 292.8c-8.8 0-16-7.2-16-16V120c0-8.8 7.2-16 16-16s16 7.2 16 16v156.8c0 8.8-7.2 16-16 16zM512 292.8c-8.8 0-16-7.2-16-16V20c0-8.8 7.2-16 16-16s16 7.2 16 16v256.8c0 8.8-7.2 16-16 16zM684.8 292.8c-8.8 0-16-7.2-16-16V120c0-8.8 7.2-16 16-16s16 7.2 16 16v156.8c0 8.8-7.2 16-16 16zM512 1020c-263.2 0-477.6-214.4-477.6-477.6 0-8.8 7.2-16 16-16s16 7.2 16 16c0 245.6 200 445.6 445.6 445.6 245.6 0 445.6-200 445.6-445.6 0-8.8 7.2-16 16-16s16 7.2 16 16c0 263.2-214.4 477.6-477.6 477.6z" p-id="1498"></path><path d="M512 948c-4.8 0-8-3.2-8-8s3.2-8 8-8c160 0 301.6-96 361.6-244.8 1.6-4 6.4-6.4 10.4-4.8 4 1.6 6.4 6.4 4.8 10.4-62.4 155.2-210.4 255.2-376.8 255.2zM512 662.4c-237.6 0-477.6-43.2-477.6-125.6 0-82.4 240-125.6 477.6-125.6s477.6 43.2 477.6 125.6c0 82.4-240 125.6-477.6 125.6z m0-219.2c-272 0-445.6 55.2-445.6 93.6C66.4 575.2 240 630.4 512 630.4s445.6-55.2 445.6-93.6c0-37.6-173.6-93.6-445.6-93.6z" p-id="1499"></path><path d="M147.2 544.8c-3.2 0-6.4-2.4-7.2-5.6-1.6-4 0.8-8.8 4.8-10.4 30.4-10.4 145.6-45.6 368-45.6 4.8 0 8 3.2 8 8s-3.2 8-8 8c-219.2 0-332.8 34.4-362.4 44.8-1.6 0.8-2.4 0.8-3.2 0.8zM614.4 662.4c-4 0-8-1.6-10.4-4-6.4-5.6-7.2-16-1.6-22.4l331.2-369.6c5.6-6.4 16-7.2 22.4-1.6 6.4 5.6 7.2 16 1.6 22.4L626.4 656.8c-3.2 4-8 5.6-12 5.6z" p-id="1500"></path></svg>